<svg width="54" height="75" viewBox="0 0 54 75" fill="none" xmlns="http://www.w3.org/2000/svg">
<path d="M9.17235 0.0378007C11.4368 0.0378007 13.3422 0.755791 14.8887 2.19177C16.4351 3.62775 17.2083 5.69888 17.2083 8.40515V25.1398C17.2083 27.57 17.9539 29.4202 19.4451 30.6905C20.9916 31.9055 22.9246 32.513 25.2443 32.513V41.8745C22.9246 41.8745 20.9916 42.5097 19.4451 43.78C17.9539 44.995 17.2083 46.8176 17.2083 49.2477V66.0653C17.2083 68.7715 16.4351 70.8427 14.8887 72.2786C13.3422 73.7146 11.4368 74.4326 9.17235 74.4326H0.14225V65.8167H5.85855V47.9222C5.85855 46.5967 6.07947 45.354 6.52131 44.1942C7.01838 42.9791 7.65353 41.9021 8.42675 40.9632C9.19997 40.0243 10.1113 39.2511 11.1606 38.6436C12.21 37.9808 13.3146 37.539 14.4744 37.3181V36.9867C13.3146 36.7658 12.21 36.3515 11.1606 35.744C10.1113 35.0812 9.19997 34.2804 8.42675 33.3415C7.65353 32.4026 7.01838 31.3532 6.52131 30.1934C6.07947 28.9783 5.85855 27.708 5.85855 26.3825V8.65368H0.14225V0.0378007H9.17235ZM44.4701 74.4326C42.2057 74.4326 40.3003 73.7146 38.7538 72.2786C37.2074 70.8427 36.4342 68.7715 36.4342 66.0653V49.2477C36.4342 46.8176 35.661 44.995 34.1145 43.78C32.6233 42.5097 30.7179 41.8745 28.3982 41.8745V32.513C30.7179 32.513 32.6233 31.9055 34.1145 30.6905C35.661 29.4202 36.4342 27.57 36.4342 25.1398V8.40515C36.4342 5.69888 37.2074 3.62775 38.7538 2.19177C40.3003 0.755791 42.2057 0.0378007 44.4701 0.0378007H53.5003V8.65368H47.7839V26.4654C47.7839 27.7909 47.5354 29.0612 47.0383 30.2762C46.5965 31.4361 45.989 32.4854 45.2158 33.4243C44.4425 34.3632 43.5312 35.1641 42.4819 35.8268C41.4325 36.4344 40.3279 36.8486 39.1681 37.0695V37.4009C40.3279 37.6218 41.4325 38.0637 42.4819 38.7264C43.5312 39.3339 44.4425 40.1072 45.2158 41.0461C45.989 41.985 46.5965 43.062 47.0383 44.277C47.5354 45.4369 47.7839 46.6795 47.7839 48.0051V65.8167H53.5003V74.4326H44.4701Z" fill="url(#paint0_linear_307_53)"/>
<path d="M14.8887 2.19177L17.0321 -0.116526L14.8887 2.19177ZM19.4451 30.6905L17.4025 33.0884L17.4499 33.1288L17.499 33.1674L19.4451 30.6905ZM25.2443 32.513H28.3943V29.363H25.2443V32.513ZM25.2443 41.8745V45.0245H28.3943V41.8745H25.2443ZM19.4451 43.78L21.4349 46.222L21.4446 46.2141L19.4451 43.78ZM14.8887 72.2786L17.0321 74.5869H17.0321L14.8887 72.2786ZM0.14225 74.4326H-3.00775V77.5826H0.14225V74.4326ZM0.14225 65.8167V62.6667H-3.00775V65.8167H0.14225ZM5.85855 65.8167V68.9667H9.00855V65.8167H5.85855ZM6.52131 44.1942L3.60584 43.0015L3.59133 43.037L3.57768 43.0728L6.52131 44.1942ZM8.42675 40.9632L10.8583 42.9657L10.8583 42.9657L8.42675 40.9632ZM11.1606 38.6436L12.7389 41.3697L12.7914 41.3393L12.8427 41.3069L11.1606 38.6436ZM14.4744 37.3181L15.0638 40.4124L17.6244 39.9247V37.3181H14.4744ZM14.4744 36.9867H17.6244V34.38L15.0638 33.8923L14.4744 36.9867ZM11.1606 35.744L9.47856 38.4073L9.52986 38.4397L9.58237 38.4701L11.1606 35.744ZM8.42675 33.3415L5.99517 35.344L5.99517 35.344L8.42675 33.3415ZM6.52131 30.1934L3.56097 31.2699L3.59118 31.353L3.62601 31.4342L6.52131 30.1934ZM5.85855 8.65368H9.00855V5.50368H5.85855V8.65368ZM0.14225 8.65368H-3.00775V11.8037H0.14225V8.65368ZM0.14225 0.0377998V-3.1122H-3.00775V0.0377998H0.14225ZM9.17235 3.1878C10.7052 3.1878 11.8264 3.64683 12.7452 4.50007L17.0321 -0.116526C14.8581 -2.13525 12.1684 -3.1122 9.17235 -3.1122V3.1878ZM12.7452 4.50007C13.4801 5.18245 14.0583 6.31269 14.0583 8.40515H20.3583C20.3583 5.08507 19.3901 2.07306 17.0321 -0.116526L12.7452 4.50007ZM14.0583 8.40515V25.1398H20.3583V8.40515H14.0583ZM14.0583 25.1398C14.0583 28.2515 15.0437 31.079 17.4025 33.0884L21.4878 28.2925C20.8642 27.7613 20.3583 26.8884 20.3583 25.1398H14.0583ZM17.499 33.1674C19.6958 34.8934 22.3506 35.663 25.2443 35.663V29.363C23.4987 29.363 22.2873 28.9176 21.3913 28.2135L17.499 33.1674ZM22.0943 32.513V41.8745H28.3943V32.513H22.0943ZM25.2443 38.7245C22.3174 38.7245 19.6432 39.5408 17.4457 41.3459L21.4446 46.2141C22.3399 45.4786 23.5319 45.0245 25.2443 45.0245V38.7245ZM17.4554 41.338C15.0426 43.3039 14.0583 46.1422 14.0583 49.2477H20.3583C20.3583 47.493 20.8653 46.6861 21.4349 46.222L17.4554 41.338ZM14.0583 49.2477V66.0653H20.3583V49.2477H14.0583ZM14.0583 66.0653C14.0583 68.1577 13.4801 69.288 12.7452 69.9703L17.0321 74.5869C19.3901 72.3974 20.3583 69.3853 20.3583 66.0653H14.0583ZM12.7452 69.9703C11.8264 70.8236 10.7052 71.2826 9.17235 71.2826V77.5826C12.1684 77.5826 14.8581 76.6057 17.0321 74.5869L12.7452 69.9703ZM9.17235 71.2826H0.14225V77.5826H9.17235V71.2826ZM3.29225 74.4326V65.8167H-3.00775V74.4326H3.29225ZM0.14225 68.9667H5.85855V62.6667H0.14225V68.9667ZM9.00855 65.8167V47.9222H2.70855V65.8167H9.00855ZM9.00855 47.9222C9.00855 46.9537 9.16859 46.0935 9.46495 45.3156L3.57768 43.0728C2.99036 44.6145 2.70855 46.2397 2.70855 47.9222H9.00855ZM9.43679 45.3869C9.82359 44.4414 10.3014 43.6419 10.8583 42.9657L5.99517 38.9608C5.00561 40.1624 4.21318 41.5169 3.60584 43.0015L9.43679 45.3869ZM10.8583 42.9657C11.3933 42.3161 12.0159 41.7882 12.7389 41.3697L9.58237 35.9175C8.20663 36.714 7.00661 37.7326 5.99517 38.9608L10.8583 42.9657ZM12.8427 41.3069C13.5754 40.8441 14.3117 40.5557 15.0638 40.4124L13.885 34.2237C12.3175 34.5223 10.8446 35.1175 9.47855 35.9803L12.8427 41.3069ZM17.6244 37.3181V36.9867H11.3244V37.3181H17.6244ZM15.0638 33.8923C14.2614 33.7395 13.4901 33.4528 12.7389 33.0179L9.58237 38.4701C10.9299 39.2502 12.3678 39.792 13.885 40.081L15.0638 33.8923ZM12.8427 33.0807C12.0709 32.5932 11.4141 32.0139 10.8583 31.339L5.99517 35.344C6.98584 36.5469 8.15165 37.5692 9.47856 38.4073L12.8427 33.0807ZM10.8583 31.339C10.282 30.6392 9.80045 29.8481 9.41662 28.9525L3.62601 31.4342C4.23632 32.8583 5.02502 34.1659 5.99517 35.344L10.8583 31.339ZM9.48166 29.1169C9.16847 28.2556 9.00855 27.3503 9.00855 26.3825H2.70855C2.70855 28.0658 2.99048 29.701 3.56097 31.2699L9.48166 29.1169ZM9.00855 26.3825V8.65368H2.70855V26.3825H9.00855ZM5.85855 5.50368H0.14225V11.8037H5.85855V5.50368ZM3.29225 8.65368V0.0377998H-3.00775V8.65368H3.29225ZM0.14225 3.1878H9.17235V-3.1122H0.14225V3.1878ZM38.7538 72.2786L40.8973 69.9703H40.8973L38.7538 72.2786ZM34.1145 43.78L32.0719 46.1779L32.1193 46.2183L32.1684 46.2569L34.1145 43.78ZM28.3982 41.8745H25.2482V45.0245H28.3982V41.8745ZM28.3982 32.513V29.363H25.2482V32.513H28.3982ZM34.1145 30.6905L36.1043 33.1325L36.114 33.1245L34.1145 30.6905ZM38.7538 2.19177L40.8973 4.50007L38.7538 2.19177ZM53.5003 0.0377998H56.6503V-3.1122H53.5003V0.0377998ZM53.5003 8.65368V11.8037H56.6503V8.65368H53.5003ZM47.7839 8.65368V5.50368H44.6339V8.65368H47.7839ZM47.0383 30.2762L44.1229 29.0835L44.1084 29.119L44.0947 29.1548L47.0383 30.2762ZM45.2158 33.4243L42.7842 31.4219V31.4219L45.2158 33.4243ZM42.4819 35.8268L44.0601 38.5529L44.1126 38.5225L44.1639 38.4901L42.4819 35.8268ZM39.1681 37.0695L38.5787 33.9751L36.0181 34.4629V37.0695H39.1681ZM39.1681 37.4009H36.0181V40.0075L38.5787 40.4953L39.1681 37.4009ZM42.4819 38.7264L40.7998 41.3897L40.8511 41.4221L40.9036 41.4525L42.4819 38.7264ZM45.2158 41.0461L47.6473 39.0436L47.6473 39.0436L45.2158 41.0461ZM47.0383 44.277L44.078 45.3535L44.1082 45.4366L44.143 45.5179L47.0383 44.277ZM47.7839 65.8167H44.6339V68.9667H47.7839V65.8167ZM53.5003 65.8167H56.6503V62.6667H53.5003V65.8167ZM53.5003 74.4326V77.5826H56.6503V74.4326H53.5003ZM44.4701 71.2826C42.9373 71.2826 41.8161 70.8236 40.8973 69.9703L36.6104 74.5869C38.7844 76.6057 41.4741 77.5826 44.4701 77.5826V71.2826ZM40.8973 69.9703C40.1624 69.288 39.5842 68.1577 39.5842 66.0653H33.2842C33.2842 69.3853 34.2524 72.3974 36.6104 74.5869L40.8973 69.9703ZM39.5842 66.0653V49.2477H33.2842V66.0653H39.5842ZM39.5842 49.2477C39.5842 46.1025 38.5451 43.2551 36.0607 41.3031L32.1684 46.2569C32.7768 46.7349 33.2842 47.5327 33.2842 49.2477H39.5842ZM36.1572 41.382C33.9948 39.54 31.3218 38.7245 28.3982 38.7245V45.0245C30.114 45.0245 31.2518 45.4793 32.0719 46.1779L36.1572 41.382ZM31.5482 41.8745V32.513H25.2482V41.8745H31.5482ZM28.3982 35.663C31.2879 35.663 33.9417 34.8946 36.1043 33.1324L32.1248 28.2485C31.3049 28.9165 30.1478 29.363 28.3982 29.363V35.663ZM36.114 33.1245C38.5449 31.1277 39.5842 28.2901 39.5842 25.1398H33.2842C33.2842 26.8499 32.777 27.7126 32.1151 28.2564L36.114 33.1245ZM39.5842 25.1398V8.40515H33.2842V25.1398H39.5842ZM39.5842 8.40515C39.5842 6.31269 40.1624 5.18245 40.8973 4.50007L36.6104 -0.116526C34.2524 2.07306 33.2842 5.08507 33.2842 8.40515H39.5842ZM40.8973 4.50007C41.8161 3.64683 42.9373 3.1878 44.4701 3.1878V-3.1122C41.4741 -3.1122 38.7844 -2.13525 36.6104 -0.116526L40.8973 4.50007ZM44.4701 3.1878H53.5003V-3.1122H44.4701V3.1878ZM50.3503 0.0377998V8.65368H56.6503V0.0377998H50.3503ZM53.5003 5.50368H47.7839V11.8037H53.5003V5.50368ZM44.6339 8.65368V26.4654H50.9339V8.65368H44.6339ZM44.6339 26.4654C44.6339 27.3859 44.4635 28.2508 44.1229 29.0835L49.9538 31.4689C50.6073 29.8715 50.9339 28.1958 50.9339 26.4654H44.6339ZM44.0947 29.1548C43.7721 30.0017 43.3356 30.7523 42.7842 31.4219L47.6473 35.4268C48.6424 34.2185 49.4209 32.8704 49.982 31.3976L44.0947 29.1548ZM42.7842 31.4219C42.2284 32.0967 41.5716 32.6761 40.7998 33.1636L44.1639 38.4901C45.4909 37.6521 46.6567 36.6298 47.6473 35.4268L42.7842 31.4219ZM40.9036 33.1007C40.1524 33.5357 39.3811 33.8223 38.5787 33.9751L39.7575 40.1639C41.2747 39.8749 42.7126 39.3331 44.0601 38.5529L40.9036 33.1007ZM36.0181 37.0695V37.4009H42.3181V37.0695H36.0181ZM38.5787 40.4953C39.3308 40.6385 40.0671 40.9269 40.7998 41.3897L44.1639 36.0631C42.7979 35.2004 41.325 34.6051 39.7575 34.3065L38.5787 40.4953ZM40.9036 41.4525C41.6266 41.8711 42.2492 42.3989 42.7842 43.0486L47.6473 39.0436C46.6359 37.8154 45.4359 36.7968 44.0601 36.0003L40.9036 41.4525ZM42.7842 43.0486C43.3158 43.6941 43.7508 44.4536 44.078 45.3535L49.9987 43.2005C49.4422 41.6703 48.6621 40.2759 47.6473 39.0436L42.7842 43.0486ZM44.143 45.5179C44.4636 46.2659 44.6339 47.0842 44.6339 48.0051H50.9339C50.9339 46.2749 50.6072 44.6078 49.9337 43.0362L44.143 45.5179ZM44.6339 48.0051V65.8167H50.9339V48.0051H44.6339ZM47.7839 68.9667H53.5003V62.6667H47.7839V68.9667ZM50.3503 65.8167V74.4326H56.6503V65.8167H50.3503ZM53.5003 71.2826H44.4701V77.5826H53.5003V71.2826Z" fill="black"/>
<defs>
<linearGradient id="paint0_linear_307_53" x1="58" y1="32" x2="-4" y2="32" gradientUnits="userSpaceOnUse">
<stop stop-color="#80FB8D"/>
<stop offset="1" stop-color="#56B4D3"/>
</linearGradient>
</defs>
</svg>
