<svg width="16" height="16" viewBox="0 0 16 16" fill="none" xmlns="http://www.w3.org/2000/svg">
<path d="M3.65436 1.32825C3.59532 1.25232 3.52081 1.18981 3.43577 1.14488C3.35072 1.09996 3.25709 1.07364 3.16109 1.06768C3.06509 1.06173 2.96893 1.07626 2.87898 1.11032C2.78903 1.14439 2.70736 1.1972 2.63939 1.26526L1.60542 2.30022C1.12244 2.78421 0.944441 3.46919 1.15543 4.07017C2.03115 6.55768 3.45566 8.81611 5.3233 10.678C7.18517 12.5456 9.4436 13.9701 11.9311 14.8458C12.5321 15.0568 13.2171 14.8788 13.701 14.3958L14.735 13.3619C14.8031 13.2939 14.8559 13.2122 14.8899 13.1223C14.924 13.0323 14.9385 12.9362 14.9326 12.8402C14.9266 12.7442 14.9003 12.6505 14.8554 12.5655C14.8105 12.4805 14.7479 12.4059 14.672 12.3469L12.3651 10.553C12.284 10.49 12.1896 10.4464 12.0891 10.4252C11.9887 10.4041 11.8847 10.4061 11.7851 10.431L9.59517 10.978C9.30286 11.051 8.99661 11.0471 8.70624 10.9667C8.41587 10.8863 8.15128 10.732 7.93822 10.519L5.4823 8.06204C5.26907 7.84909 5.11464 7.58454 5.03403 7.29417C4.95342 7.00379 4.94938 6.69749 5.02231 6.40509L5.5703 4.21516C5.5952 4.11556 5.59716 4.0116 5.57603 3.91114C5.5549 3.81067 5.51122 3.71631 5.4483 3.63518L3.65436 1.32825ZM1.88441 0.511279C2.0594 0.336234 2.26963 0.200419 2.50113 0.112853C2.73264 0.0252863 2.98012 -0.0120279 3.22715 0.00338793C3.47418 0.0188037 3.71511 0.0865967 3.93393 0.202265C4.15275 0.317934 4.34446 0.478831 4.49633 0.674274L6.29027 2.9802C6.61926 3.40319 6.73526 3.95417 6.60526 4.47415L6.05828 6.66409C6.03 6.77751 6.03153 6.89632 6.06272 7.00899C6.0939 7.12165 6.15369 7.22433 6.23628 7.30707L8.6932 9.76399C8.77603 9.84674 8.87889 9.90663 8.99174 9.93782C9.1046 9.96901 9.2236 9.97045 9.33718 9.94198L11.5261 9.395C11.7827 9.33084 12.0505 9.32586 12.3094 9.38043C12.5682 9.435 12.8112 9.54769 13.0201 9.70999L15.326 11.5039C16.155 12.1489 16.231 13.3739 15.489 14.1149L14.455 15.1488C13.715 15.8888 12.6091 16.2138 11.5781 15.8508C8.93937 14.9224 6.54354 13.4117 4.56833 11.4309C2.58768 9.45601 1.07705 7.06053 0.148466 4.42216C-0.213522 3.39219 0.111467 2.28522 0.851444 1.54525L1.88541 0.511279H1.88441Z" fill="#323232"/>
</svg>
