<svg width="211" height="211" viewBox="0 0 211 211" fill="none" xmlns="http://www.w3.org/2000/svg">
<g clip-path="url(#clip0_768_248)">
<path d="M52.75 102.042V158.25H108.958L97.2358 146.528H64.4722V113.764L52.75 102.042Z" fill="black"/>
<path d="M204.377 189.255L187.556 172.199V187.556H23.4444V163.232H35.1666V153.854H23.4444V114.878H35.1666V105.5H23.4444V67.9889H35.1666V58.6111H23.4444V25.8475L116.871 118.746V102.218L21.7447 7.56084C20.9249 6.73425 19.8775 6.17052 18.7361 5.94153C17.5946 5.71254 16.4109 5.82866 15.3357 6.27508C14.2605 6.7215 13.3426 7.478 12.6991 8.44813C12.0555 9.41826 11.7154 10.5581 11.7222 11.7222V193.417C11.7222 194.971 12.3397 196.462 13.4389 197.561C14.5381 198.66 16.0289 199.278 17.5833 199.278H200.216C201.38 199.285 202.519 198.944 203.49 198.301C204.46 197.657 205.216 196.739 205.663 195.664C206.109 194.589 206.225 193.405 205.996 192.264C205.767 191.122 205.204 190.075 204.377 189.255Z" fill="black"/>
<path d="M140.667 175.833H164.111C167.22 175.833 170.202 174.598 172.4 172.4C174.598 170.202 175.833 167.22 175.833 164.111V50.9917L162.353 26.1992C161.31 24.3929 159.805 22.8975 157.991 21.8672C156.178 20.8369 154.123 20.309 152.037 20.338C149.905 20.355 147.817 20.9534 145.999 22.0688C144.182 23.1842 142.703 24.7744 141.722 26.6681L128.944 51.1089V164.111C128.944 167.22 130.179 170.202 132.378 172.4C134.576 174.598 137.558 175.833 140.667 175.833ZM140.667 53.9222L152.037 31.8258L164.111 53.9808V140.667H140.667V53.9222ZM140.667 150.22H164.111V164.521H140.667V150.22Z" fill="black"/>
</g>
<defs>
<clipPath id="clip0_768_248">
<rect width="211" height="211" fill="white"/>
</clipPath>
</defs>
</svg>
