<svg width="195" height="195" viewBox="0 0 195 195" fill="none" xmlns="http://www.w3.org/2000/svg">
<g clip-path="url(#clip0_765_106)">
<path d="M179.441 47.7148C181.16 47.7148 182.553 46.322 182.553 44.6031V31.117H191.888C193.607 31.117 195 29.7242 195 28.0053V3.1117C195 1.3928 193.607 0 191.888 0H166.995C165.276 0 163.883 1.3928 163.883 3.1117V12.4468H31.117V3.1117C31.117 1.3928 29.7238 0 28.0053 0H3.1117C1.39321 0 0 1.3928 0 3.1117V28.0053C0 29.7242 1.39321 31.117 3.1117 31.117H12.4468V163.883H3.1117C1.39321 163.883 0 165.276 0 166.995V191.888C0 193.607 1.39321 195 3.1117 195H28.0053C29.7238 195 31.117 193.607 31.117 191.888V182.553H163.883V191.888C163.883 193.607 165.276 195 166.995 195H191.888C193.607 195 195 193.607 195 191.888V166.995C195 165.276 193.607 163.883 191.888 163.883H182.553V57.0499C182.553 55.331 181.16 53.9382 179.441 53.9382C177.723 53.9382 176.33 55.331 176.33 57.0499V163.883H166.995C165.276 163.883 163.883 165.276 163.883 166.995V176.33H31.117V166.995C31.117 165.276 29.7238 163.883 28.0053 163.883H18.6702V31.117H28.0053C29.7238 31.117 31.117 29.7242 31.117 28.0053V18.6702H163.883V28.0053C163.883 29.7242 165.276 31.117 166.995 31.117H176.33V44.6031C176.33 46.3216 177.723 47.7148 179.441 47.7148ZM170.106 170.106H188.777V188.777H170.106V170.106ZM24.8936 188.777H6.2234V170.106H24.8936V188.777ZM24.8936 24.8936H6.2234V6.2234H24.8936V24.8936ZM170.106 6.2234H188.777V24.8936H170.106V6.2234Z" fill="black"/>
<path d="M153.511 44.6032C153.511 42.8843 152.117 41.4915 150.399 41.4915H44.6011C42.8826 41.4915 41.4893 42.8843 41.4893 44.6032V97.4996C41.4893 99.2185 42.8826 100.611 44.6011 100.611H150.399C152.117 100.611 153.511 99.2185 153.511 97.4996V44.6032ZM47.7128 49.6379L90.5418 71.0514L47.7128 92.4649V49.6379ZM57.7826 47.7149H137.217L97.5 67.5725L57.7826 47.7149ZM97.5 74.5303L137.217 94.3879H57.7826L97.5 74.5303ZM104.458 71.0514L147.287 49.6379V92.4653L104.458 71.0514Z" fill="black"/>
<path d="M91.2766 147.287H44.6011C42.8826 147.287 41.4893 148.68 41.4893 150.399C41.4893 152.118 42.8826 153.511 44.6011 153.511H91.2766C92.9951 153.511 94.3883 152.118 94.3883 150.399C94.3883 148.68 92.9951 147.287 91.2766 147.287Z" fill="black"/>
<path d="M150.399 147.287H103.723C102.005 147.287 100.612 148.68 100.612 150.399C100.612 152.118 102.005 153.511 103.723 153.511H150.399C152.117 153.511 153.511 152.118 153.511 150.399C153.511 148.68 152.117 147.287 150.399 147.287Z" fill="black"/>
<path d="M91.2766 134.062H44.6011C42.8826 134.062 41.4893 135.455 41.4893 137.174C41.4893 138.893 42.8826 140.286 44.6011 140.286H91.2766C92.9951 140.286 94.3883 138.893 94.3883 137.174C94.3883 135.455 92.9951 134.062 91.2766 134.062Z" fill="black"/>
<path d="M150.399 134.062H103.723C102.005 134.062 100.612 135.455 100.612 137.174C100.612 138.893 102.005 140.286 103.723 140.286H150.399C152.117 140.286 153.511 138.893 153.511 137.174C153.511 135.455 152.117 134.062 150.399 134.062Z" fill="black"/>
<path d="M91.2766 120.838H44.6011C42.8826 120.838 41.4893 122.231 41.4893 123.949C41.4893 125.668 42.8826 127.061 44.6011 127.061H91.2766C92.9951 127.061 94.3883 125.668 94.3883 123.949C94.3883 122.231 92.9951 120.838 91.2766 120.838Z" fill="black"/>
<path d="M150.399 120.838H103.723C102.005 120.838 100.612 122.231 100.612 123.949C100.612 125.668 102.005 127.061 103.723 127.061H150.399C152.117 127.061 153.511 125.668 153.511 123.949C153.511 122.231 152.117 120.838 150.399 120.838Z" fill="black"/>
<path d="M150.399 107.613H44.6011C42.8826 107.613 41.4893 109.005 41.4893 110.724C41.4893 112.443 42.8826 113.836 44.6011 113.836H150.399C152.117 113.836 153.511 112.443 153.511 110.724C153.511 109.005 152.117 107.613 150.399 107.613Z" fill="black"/>
</g>
<defs>
<clipPath id="clip0_765_106">
<rect width="195" height="195" fill="white"/>
</clipPath>
</defs>
</svg>
