<svg width="255" height="255" viewBox="0 0 255 255" fill="none" xmlns="http://www.w3.org/2000/svg">
<g clip-path="url(#clip0_765_225)">
<path d="M250.583 80.092H193.755V37.3953C193.755 34.956 191.777 32.9784 189.338 32.9784H4.4169C1.97759 32.9784 0 34.956 0 37.3953V170.491C0 172.93 1.97759 174.908 4.4169 174.908H61.2453V217.605C61.2453 220.044 63.2229 222.022 65.6622 222.022H250.583C253.022 222.022 255 220.044 255 217.605V84.5089C255 82.0696 253.022 80.092 250.583 80.092ZM246.166 106.178H70.0791V88.9258H246.166V106.178ZM184.921 41.8122V59.0646H8.8338V41.8122H184.921ZM8.8338 166.074V67.8984H184.921V80.092H65.6622C63.2229 80.092 61.2453 82.0696 61.2453 84.5089V166.074H8.8338ZM70.0791 115.012H123.448V213.188H70.0791V115.012ZM132.282 213.188V115.012H246.166V213.188H132.282Z" fill="black"/>
<path d="M79.2215 101.97C80.3876 101.97 81.5242 101.499 82.3487 100.674C83.1673 99.8556 83.6384 98.7131 83.6384 97.5529C83.6384 96.3868 83.1673 95.2502 82.3487 94.4316C81.5242 93.6071 80.3876 93.136 79.2215 93.136C78.0613 93.136 76.9188 93.6071 76.1002 94.4316C75.2757 95.2502 74.8046 96.3868 74.8046 97.5529C74.8046 98.7131 75.2757 99.8556 76.1002 100.674C76.9241 101.499 78.0607 101.97 79.2215 101.97Z" fill="black"/>
<path d="M90.1572 101.97C91.3233 101.97 92.4599 101.499 93.2844 100.674C94.103 99.8556 94.5741 98.7131 94.5741 97.5529C94.5741 96.3927 94.103 95.2502 93.2844 94.4257C92.4599 93.6071 91.3233 93.136 90.1572 93.136C88.997 93.136 87.8604 93.6071 87.0359 94.4257C86.2173 95.2502 85.7462 96.3927 85.7462 97.5529C85.7462 98.7131 86.2173 99.8556 87.0359 100.674C87.8604 101.499 88.997 101.97 90.1572 101.97Z" fill="black"/>
<path d="M101.099 101.97C102.259 101.97 103.396 101.499 104.221 100.674C105.045 99.8556 105.516 98.7131 105.516 97.5529C105.516 96.3868 105.045 95.2502 104.221 94.4257C103.396 93.6071 102.259 93.136 101.099 93.136C99.9332 93.136 98.7966 93.6071 97.9721 94.4257C97.1535 95.2502 96.6823 96.3927 96.6823 97.5529C96.6823 98.7131 97.1535 99.8556 97.9721 100.674C98.7966 101.499 99.9332 101.97 101.099 101.97Z" fill="black"/>
<path d="M82.6296 132.921H110.898C113.337 132.921 115.315 130.943 115.315 128.504C115.315 126.065 113.337 124.087 110.898 124.087H82.6296C80.1903 124.087 78.2127 126.065 78.2127 128.504C78.2127 130.943 80.1903 132.921 82.6296 132.921Z" fill="black"/>
<path d="M110.898 139.988H82.6296C80.1903 139.988 78.2127 141.966 78.2127 144.405C78.2127 146.844 80.1903 148.822 82.6296 148.822H110.898C113.337 148.822 115.315 146.844 115.315 144.405C115.315 141.966 113.337 139.988 110.898 139.988Z" fill="black"/>
<path d="M110.898 155.889H82.6296C80.1903 155.889 78.2127 157.867 78.2127 160.306C78.2127 162.745 80.1903 164.723 82.6296 164.723H110.898C113.337 164.723 115.315 162.745 115.315 160.306C115.315 157.867 113.337 155.889 110.898 155.889Z" fill="black"/>
<path d="M210.244 124.087H143.877C141.438 124.087 139.46 126.065 139.46 128.504C139.46 130.943 141.438 132.921 143.877 132.921H210.244C212.684 132.921 214.661 130.943 214.661 128.504C214.661 126.065 212.684 124.087 210.244 124.087Z" fill="black"/>
<path d="M210.244 139.988H143.877C141.438 139.988 139.46 141.966 139.46 144.405C139.46 146.844 141.438 148.822 143.877 148.822H210.244C212.684 148.822 214.661 146.844 214.661 144.405C214.661 141.966 212.684 139.988 210.244 139.988Z" fill="black"/>
<path d="M210.244 155.889H143.877C141.438 155.889 139.46 157.867 139.46 160.306C139.46 162.745 141.438 164.723 143.877 164.723H210.244C212.684 164.723 214.661 162.745 214.661 160.306C214.661 157.867 212.684 155.889 210.244 155.889Z" fill="black"/>
<path d="M17.9739 54.8561C19.1399 54.8561 20.2765 54.385 21.101 53.5605C21.9196 52.736 22.3908 51.5994 22.3908 50.4392C22.3908 49.2791 21.9196 48.1366 21.101 47.318C20.2765 46.4935 19.1399 46.0223 17.9739 46.0223C16.8137 46.0223 15.6771 46.4935 14.8526 47.318C14.0281 48.1366 13.557 49.2732 13.557 50.4392C13.557 51.5994 14.0281 52.7419 14.8526 53.5605C15.6765 54.385 16.8131 54.8561 17.9739 54.8561Z" fill="black"/>
<path d="M28.9095 54.8561C30.0756 54.8561 31.2122 54.385 32.0367 53.5605C32.8553 52.7419 33.3264 51.5994 33.3264 50.4392C33.3264 49.2732 32.8553 48.1366 32.0367 47.318C31.2122 46.4935 30.0756 46.0223 28.9095 46.0223C27.7493 46.0223 26.6127 46.4935 25.7882 47.318C24.9696 48.1366 24.4985 49.2732 24.4985 50.4392C24.4985 51.5994 24.9696 52.7419 25.7882 53.5605C26.6127 54.385 27.7493 54.8561 28.9095 54.8561Z" fill="black"/>
<path d="M39.8516 54.8561C41.0118 54.8561 42.1484 54.385 42.9729 53.5605C43.7974 52.736 44.2685 51.5994 44.2685 50.4392C44.2685 49.2791 43.7974 48.1366 42.9729 47.318C42.1543 46.4935 41.0118 46.0223 39.8516 46.0223C38.6856 46.0223 37.5489 46.4935 36.7245 47.318C35.9059 48.1366 35.4347 49.2732 35.4347 50.4392C35.4347 51.5994 35.9059 52.7419 36.7245 53.5605C37.5489 54.385 38.6856 54.8561 39.8516 54.8561Z" fill="black"/>
<path d="M49.6501 76.9736H21.3819C18.9426 76.9736 16.965 78.9512 16.965 81.3905C16.965 83.8298 18.9426 85.8074 21.3819 85.8074H49.6501C52.0894 85.8074 54.067 83.8298 54.067 81.3905C54.067 78.9512 52.0894 76.9736 49.6501 76.9736Z" fill="black"/>
<path d="M49.6501 92.8744H21.3819C18.9426 92.8744 16.965 94.852 16.965 97.2913C16.965 99.7306 18.9426 101.708 21.3819 101.708H49.6501C52.0894 101.708 54.067 99.7306 54.067 97.2913C54.067 94.852 52.0894 92.8744 49.6501 92.8744Z" fill="black"/>
<path d="M49.6501 108.775H21.3819C18.9426 108.775 16.965 110.753 16.965 113.192C16.965 115.631 18.9426 117.609 21.3819 117.609H49.6501C52.0894 117.609 54.067 115.631 54.067 113.192C54.067 110.753 52.0894 108.775 49.6501 108.775Z" fill="black"/>
</g>
<defs>
<clipPath id="clip0_765_225">
<rect width="255" height="255" fill="white"/>
</clipPath>
</defs>
</svg>
